<svg width="40" height="40" viewBox="0 0 40 40" fill="none" xmlns="http://www.w3.org/2000/svg">
<path fill-rule="evenodd" clip-rule="evenodd" d="M33.2688 15.1671C32.5355 14.7837 31.6688 14.5671 30.6355 14.5004L30.0022 10.5504C29.8355 9.46706 28.902 8.68372 27.802 8.68372H26.9687C26.5187 9.58372 25.5855 10.2004 24.5022 10.2004H15.5021C14.4188 10.2004 13.4854 9.58372 13.0354 8.68372H12.2021C11.1021 8.68372 10.1687 9.46706 10.0021 10.5504L9.36875 14.5004C8.33542 14.5671 7.45208 14.8004 6.71875 15.1671L7.53542 10.1671C7.90208 7.85039 9.86875 6.18372 12.2021 6.18372H13.0354C13.4854 5.28372 14.4188 4.65039 15.5021 4.65039H24.5022C25.5855 4.65039 26.502 5.28372 26.9687 6.18372H27.802C30.152 6.18372 32.102 7.85039 32.4687 10.1671L33.2688 15.1671Z" fill="white"/>
<path opacity="0.4" fill-rule="evenodd" clip-rule="evenodd" d="M34.7692 16.3992C34.3692 15.8825 33.8692 15.4825 33.2692 15.1658C32.5358 14.7825 31.6692 14.5658 30.6358 14.4992C30.4025 14.4658 30.1692 14.4658 29.9192 14.4658H10.0858C9.83578 14.4658 9.60245 14.4658 9.36911 14.4992C8.33578 14.5658 7.45245 14.7992 6.71911 15.1658C6.13578 15.4825 5.63578 15.8825 5.23578 16.3825C4.13578 17.7658 3.88578 19.7492 4.46911 22.2658L6.08578 29.9992C6.76911 33.6992 9.48578 35.3492 11.8691 35.3492H28.1358C30.5192 35.3492 33.2358 33.6992 33.9192 30.0325L35.5192 22.2825C36.1192 19.7492 35.8692 17.7658 34.7692 16.3992Z" fill="white"/>
<path fill-rule="evenodd" clip-rule="evenodd" d="M27.6058 29.2123C26.9158 29.2123 26.3558 28.6523 26.3558 27.9623V21.8506C26.3558 21.1606 26.9158 20.6006 27.6058 20.6006C28.2958 20.6006 28.8558 21.1606 28.8558 21.8506V27.9623C28.8558 28.6523 28.2958 29.2123 27.6058 29.2123Z" fill="white"/>
<path fill-rule="evenodd" clip-rule="evenodd" d="M21.1703 29.2123C20.4803 29.2123 19.9203 28.6523 19.9203 27.9623V21.8506C19.9203 21.1606 20.4803 20.6006 21.1703 20.6006C21.8603 20.6006 22.4203 21.1606 22.4203 21.8506V27.9623C22.4203 28.6523 21.8603 29.2123 21.1703 29.2123Z" fill="white"/>
<path fill-rule="evenodd" clip-rule="evenodd" d="M14.7379 29.2123C14.0479 29.2123 13.4879 28.6523 13.4879 27.9623V21.8506C13.4879 21.1606 14.0479 20.6006 14.7379 20.6006C15.4279 20.6006 15.9879 21.1606 15.9879 21.8506V27.9623C15.9879 28.6523 15.4279 29.2123 14.7379 29.2123Z" fill="white"/>
</svg>
