<svg width="34" height="30" viewBox="0 0 34 30" fill="none" xmlns="http://www.w3.org/2000/svg">
<path fill-rule="evenodd" clip-rule="evenodd" d="M33.3274 8.95854H26.2696C22.9852 8.96432 20.3244 11.5586 20.3185 14.7609C20.3141 17.9705 22.9778 20.5763 26.2696 20.5807H33.3333V21.0906C33.3333 26.6893 29.9393 30 24.1956 30H9.13926C3.39407 30 0 26.6893 0 21.0906V8.89643C0 3.2977 3.39407 0 9.13926 0H24.1896C29.9333 0 33.3274 3.2977 33.3274 8.89643V8.95854ZM7.89926 8.94554H17.2993H17.3052H17.317C18.0207 8.94265 18.5896 8.38365 18.5867 7.69609C18.5837 7.00997 18.0089 6.45529 17.3052 6.45818H7.89926C7.2 6.46107 6.63259 7.0143 6.62963 7.69753C6.62667 8.38365 7.19556 8.94265 7.89926 8.94554Z" fill="white"/>
<path opacity="0.4" d="M23.3957 15.4944C23.7442 17.0798 25.1341 18.1951 26.721 18.1661H32.1375C32.7978 18.1661 33.3333 17.6193 33.3333 16.9434V12.7242C33.3319 12.0497 32.7978 11.5015 32.1375 11.5H26.5935C24.7884 11.5058 23.3305 13.0041 23.3333 14.8505C23.3333 15.0666 23.3546 15.2827 23.3957 15.4944Z" fill="white"/>
<circle cx="26.6667" cy="14.8337" r="1.66667" fill="white"/>
</svg>
