<svg width="34" height="32" viewBox="0 0 34 32" fill="none" xmlns="http://www.w3.org/2000/svg">
<path opacity="0.4" d="M16.2932 31.3957C12.4881 29.0455 8.95092 26.2742 5.74635 23.1327C3.48405 20.8896 1.75631 18.1508 0.695148 15.1254C-1.20091 9.22538 1.00622 2.48247 7.16839 0.480661C10.4209 -0.540781 13.9583 0.0862575 16.6783 2.16639C19.3993 0.0885838 22.9355 -0.538251 26.1882 0.480661C32.3504 2.48247 34.5723 9.22538 32.6762 15.1254C31.6237 18.1479 29.9062 20.8865 27.6547 23.1327C24.4472 26.2708 20.9104 29.0418 17.1079 31.3957L16.6931 31.6667L16.2932 31.3957Z" fill="white"/>
<path d="M16.6848 31.667L16.2933 31.3961C12.4835 29.046 8.94145 26.2748 5.7317 23.133C3.45867 20.893 1.72064 18.154 0.650865 15.1258C-1.23038 9.2257 0.97675 2.48278 7.13892 0.480978C10.3914 -0.540465 13.9755 0.0870544 16.6848 2.1846V31.667Z" fill="white"/>
<path d="M27.0506 11.6654C26.7158 11.6438 26.404 11.4765 26.1883 11.2026C25.9725 10.9287 25.8718 10.5723 25.9097 10.2169C25.9459 9.04634 25.2799 7.98084 24.2527 7.56628C23.6014 7.38849 23.2069 6.68311 23.3699 5.98748C23.5245 5.30303 24.1654 4.87745 24.8096 5.03151C24.8909 5.045 24.9692 5.07446 25.0404 5.11841C27.1 5.91097 28.4334 8.04401 28.3273 10.3763C28.3239 10.7298 28.1861 11.0666 27.9454 11.3097C27.7047 11.5527 27.3817 11.6811 27.0506 11.6654Z" fill="white"/>
</svg>
