<svg width="20" height="20" viewBox="0 0 20 20" fill="none" xmlns="http://www.w3.org/2000/svg">
<path opacity="0.4" d="M6.08017 5.37203C6.08017 3.32953 7.79667 1.66703 9.90636 1.66703H14.1C16.2045 1.66703 17.9167 3.32536 17.9167 5.3637V14.627C17.9167 16.6704 16.201 18.3337 14.0913 18.3337H9.89776C7.79322 18.3337 6.08017 16.6745 6.08017 14.6354V13.852V5.37203Z" fill="white"/>
<path d="M13.3645 9.5452L10.8913 7.12103C10.6356 6.87103 10.2243 6.87103 9.96949 7.1227C9.71557 7.37436 9.71641 7.7802 9.97119 8.0302L11.3255 9.3577H2.73509C2.37536 9.3577 2.08334 9.6452 2.08334 10.0002C2.08334 10.3544 2.37536 10.641 2.73509 10.641H11.3255L9.97119 11.9694C9.71641 12.2194 9.71557 12.6252 9.96949 12.8769C10.0973 13.0027 10.264 13.066 10.4316 13.066C10.5975 13.066 10.7643 13.0027 10.8913 12.8785L13.3645 10.4544C13.4872 10.3335 13.5566 10.1702 13.5566 10.0002C13.5566 9.82936 13.4872 9.66603 13.3645 9.5452Z" fill="white"/>
</svg>
