<svg width="32" height="32" viewBox="0 0 32 32" fill="none" xmlns="http://www.w3.org/2000/svg">
<path d="M16.0003 16C23.0694 16 28.8 13.6123 28.8 10.6669C28.8 7.72149 23.0694 5.33377 16.0003 5.33377C8.93125 5.33377 3.20064 7.72149 3.20064 10.6669C3.20064 13.6123 8.93125 16 16.0003 16Z" fill="white"/>
<path opacity="0.4" d="M28.7998 14.9329V14.6964C26.0459 16.9611 21.0062 18.1329 15.9998 18.1329C10.994 18.1329 5.95498 16.9611 3.2001 14.6964V14.9329C3.2001 16.236 4.32362 17.4276 6.18506 18.3534L3.19978 26.666H5.46634L8.16778 19.1454C10.0692 19.7598 12.3934 20.1556 14.9329 20.2433V24.5329H17.0663V20.2433C19.6062 20.156 21.93 19.7598 23.8311 19.1454L26.5332 26.666H28.7998L25.8145 18.3534C27.6756 17.4276 28.7998 16.236 28.7998 14.9329Z" fill="white"/>
</svg>
